{"title":"Benvenuto - Laura Pausini.mp3","uid":6884566,"size":6374000,"categoryP":"audio","categoryS":"music","magnet":"?xt=urn:btih:9618babd1cd72a5f9e8d0505556934124dee7706&amp;dn=Benvenuto+-+Laura+Pausini.mp3&amp;tr=udp%3A%2F%2Ftracker.openbittorrent.com%3A80&amp;tr=udp%3A%2F%2Fopen.demonii.com%3A1337&amp;tr=udp%3A%2F%2Ftracker.coppersurfer.tk%3A6969&amp;tr=udp%3A%2F%2Fexodus.desync.com%3A6969","seeders":1,"leechers":0,"uploader":"crasdaril","files":-1,"time":1323777503,"description":"Laura Pausini - Benvenuto\n\nVideo: Windows Media Video 9 640x480 12.00fps 1200kbps [Raw Video 1]\nAudio: Windows Media Audio 44100Hz stereo 64kbps [Raw Audio 0]\n\n\nGeneral\nComplete name                  : D:\\work\\sharing\\_music\\Benvenuto - Laura Pausini.mp3\nFormat                         : Windows Media\nFile size                      : 6.08 MiB\nDuration                       : 3mn 38s\nOverall bit rate mode          : Constant\nOverall bit rate               : 233 Kbps\nMaximum Overall bit rate       : 1 276 Kbps\nMovie name                     : Laura Pausini\nMovie name/More                : Benvenuto - Laura Pausini\nAlbum                          : Laura Pausini\nPerformer                      : Benvenuto\nEncoded date                   : UTC 2011-12-03 03:13:58.562\nComment                        : Benvenuto Laura Pausini\nWM/OriginalLyricist            : Benvenuto - Laura Pausini\nWM/Category                    : Benvenuto - Laura Pausini\nWM/OriginalArtist              : Benvenuto\n\nVideo\nID                             : 2\nFormat                         : VC-1\nFormat profile                 : MP@ML\nCodec ID                       : WMV3\nCodec ID/Info                  : Windows Media Video 9\nCodec ID/Hint                  : WMV3\nDescription of the codec       : Windows Media Video 9 - Professional\nDuration                       : 3mn 39s\nBit rate mode                  : Constant\nBit rate                       : 1 200 Kbps\nWidth                          : 640 pixels\nHeight                         : 480 pixels\nDisplay aspect ratio           : 4:3\nFrame rate                     : 12.000 fps\nBit depth                      : 8 bits\nScan type                      : Progressive\nCompression mode               : Lossy\nBits/(Pixel*Frame)             : 0.326\nStream size                    : 31.3 MiB\n\nAudio\nID                             : 1\nFormat                         : WMA\nFormat version                 : Version 2\nCodec ID                       : 161\nCodec ID/Info                  : Windows Media Audio\nDescription of the codec       : Windows Media Audio 9.2 -  64 kbps, 44 kHz, stereo (A/V) 1-pass CBR\nDuration                       : 3mn 38s\nBit rate mode                  : Constant\nBit rate                       : 64.0 Kbps\nChannel(s)                     : 2 channels\nSampling rate                  : 44.1 KHz\nBit depth                      : 16 bits\nStream size                    : 1.67 MiB (28%)\n","torrent":{"xt":"urn:btih:9618babd1cd72a5f9e8d0505556934124dee7706","amp;dn":"Benvenuto+-+Laura+Pausini.mp3","amp;tr":["udp%3A%2F%2Ftracker.openbittorrent.com%3A80","udp%3A%2F%2Fopen.demonii.com%3A1337","udp%3A%2F%2Ftracker.coppersurfer.tk%3A6969","udp%3A%2F%2Fexodus.desync.com%3A6969"],"infoHash":"9618babd1cd72a5f9e8d0505556934124dee7706","infoHashBuffer":{"type":"Buffer","data":[150,24,186,189,28,215,42,95,158,141,5,5,85,105,52,18,77,238,119,6]},"announce":[],"urlList":[]}}